<svg enable-background="new 0 0 64 64" viewBox="0 0 64 64" xmlns="http://www.w3.org/2000/svg"><circle cx="32" cy="32" fill="#76c2af" r="32"/><path d="m24.6 41.9c.4 1.1-.2 2-1.4 2h-2c-1.1 0-2.3-.9-2.6-2l-3.2-10c-.4-1.1.2-2 1.4-2h2c1.1 0 2.3.9 2.6 2z" fill="#231f20" opacity=".2"/><path d="m24 46.9c.4 1.1-.2 2-1.4 2h-2c-1.1 0-2-.1-2.4-1.2l-3.5-10.8c-.4-1.1.2-2 1.4-2h2c1.1 0 2.3.9 2.6 2z" fill="#231f20" opacity=".2"/><path d="m24.6 39.9c.4 1.1-.2 2-1.4 2h-2c-1.1 0-2.3-.9-2.6-2l-3.2-10c-.4-1.1.2-2 1.4-2h2c1.1 0 2.3.9 2.6 2z" fill="#c75c5c"/><path d="m24 44.9c.4 1.1-.2 2-1.4 2h-2c-1.1 0-2.2-.5-2.6-1.6l-3.3-10.4c-.4-1.1.2-2 1.4-2h2c1.1 0 2.3.9 2.6 2z" fill="#4f5d73"/><path d="m48 28.9v-10.4c0-.8-.7-1.5-1.5-1.5s-1.5.7-1.5 1.5v1c-2.8 2.5-6.3 6.4-16 6.4h-11-2-2c-1.1 0-2 .9-2 2-1.1 0-2 .9-2 2v6c0 1.1.9 2 2 2 0 1.1.9 2 2 2h1 1 2 11c9.7 0 13.2 3.9 16 6.4v1.1c0 .8.7 1.5 1.5 1.5s1.5-.7 1.5-1.5v-10.5c1.1 0 2-.9 2-2v-4c0-1.1-.9-2-2-2z" fill="#231f20" opacity=".2"/><path d="m50 32.9c0 1.1-.9 2-2 2h-8c-1.1 0-2-.9-2-2v-4c0-1.1.9-2 2-2h8c1.1 0 2 .9 2 2z" fill="#e0e0d1"/><path d="m22 33.9c0 1.1-.9 2-2 2h-8c-1.1 0-2-.9-2-2v-6c0-1.1.9-2 2-2h8c1.1 0 2 .9 2 2z" fill="#4f5d73"/><path d="m46.1 16.6c-3 2.3-6.1 7.3-17.1 7.3h-13l-1 14h14c11 0 14.1 5 17.1 7.3z" fill="#fff"/><path d="m18 37.9s-.9 0-2 0h-2c-1.1 0-2-.9-2-2v-10c0-1.1.9-2 2-2h2 2z" fill="#c75c5c"/><path d="m48 45.4c0 .8-.7 1.5-1.5 1.5-.8 0-1.5-.7-1.5-1.5v-28.9c0-.8.7-1.5 1.5-1.5.8 0 1.5.7 1.5 1.5z" fill="#4f5d73"/></svg>